<svg id="visual" viewBox="0 0 3000 1000" width="3000" height="1000" xmlns="http://www.w3.org/2000/svg" xmlns:xlink="http://www.w3.org/1999/xlink" version="1.1"><rect x="0" y="0" width="3000" height="1000" fill="#002233"></rect><path d="M0 609L29.3 608.8C58.7 608.7 117.3 608.3 176.2 611.2C235 614 294 620 352.8 615.5C411.7 611 470.3 596 529.2 592.3C588 588.7 647 596.3 705.8 599.2C764.7 602 823.3 600 882.2 600.5C941 601 1000 604 1058.8 598.3C1117.7 592.7 1176.3 578.3 1235.2 572C1294 565.7 1353 567.3 1411.8 578.3C1470.7 589.3 1529.3 609.7 1588.2 611.8C1647 614 1706 598 1764.8 590C1823.7 582 1882.3 582 1941.2 585.5C2000 589 2059 596 2117.8 596.7C2176.7 597.3 2235.3 591.7 2294.2 587.8C2353 584 2412 582 2470.8 579C2529.7 576 2588.3 572 2647.2 569.2C2706 566.3 2765 564.7 2823.8 572.3C2882.7 580 2941.3 597 2970.7 605.5L3000 614L3000 1001L2970.7 1001C2941.3 1001 2882.7 1001 2823.8 1001C2765 1001 2706 1001 2647.2 1001C2588.3 1001 2529.7 1001 2470.8 1001C2412 1001 2353 1001 2294.2 1001C2235.3 1001 2176.7 1001 2117.8 1001C2059 1001 2000 1001 1941.2 1001C1882.3 1001 1823.7 1001 1764.8 1001C1706 1001 1647 1001 1588.2 1001C1529.3 1001 1470.7 1001 1411.8 1001C1353 1001 1294 1001 1235.2 1001C1176.3 1001 1117.7 1001 1058.8 1001C1000 1001 941 1001 882.2 1001C823.3 1001 764.7 1001 705.8 1001C647 1001 588 1001 529.2 1001C470.3 1001 411.7 1001 352.8 1001C294 1001 235 1001 176.2 1001C117.3 1001 58.7 1001 29.3 1001L0 1001Z" fill="#0066FF" stroke-linecap="round" stroke-linejoin="miter"></path></svg>