<svg id="visual" viewBox="0 0 3000 1000" width="3000" height="1000" xmlns="http://www.w3.org/2000/svg" xmlns:xlink="http://www.w3.org/1999/xlink" version="1.1"><rect x="0" y="0" width="3000" height="1000" fill="#002233"></rect><path d="M0 468L22.7 481.3C45.3 494.7 90.7 521.3 136.2 532.3C181.7 543.3 227.3 538.7 272.8 532.2C318.3 525.7 363.7 517.3 409 517.3C454.3 517.3 499.7 525.7 545.2 517.5C590.7 509.3 636.3 484.7 681.8 470.7C727.3 456.7 772.7 453.3 818.2 461.3C863.7 469.3 909.3 488.7 954.8 502.5C1000.3 516.3 1045.7 524.7 1091 518.7C1136.3 512.7 1181.7 492.3 1227.2 490.3C1272.7 488.3 1318.3 504.7 1363.8 516.3C1409.3 528 1454.7 535 1500 524C1545.3 513 1590.7 484 1636.2 474.7C1681.7 465.3 1727.3 475.7 1772.8 475.7C1818.3 475.7 1863.7 465.3 1909 467.7C1954.3 470 1999.7 485 2045.2 498.7C2090.7 512.3 2136.3 524.7 2181.8 526C2227.3 527.3 2272.7 517.7 2318.2 514.5C2363.7 511.3 2409.3 514.7 2454.8 513.5C2500.3 512.3 2545.7 506.7 2591 499.8C2636.3 493 2681.7 485 2727.2 482C2772.7 479 2818.3 481 2863.8 485C2909.3 489 2954.7 495 2977.3 498L3000 501L3000 1001L2977.3 1001C2954.7 1001 2909.3 1001 2863.8 1001C2818.3 1001 2772.7 1001 2727.2 1001C2681.7 1001 2636.3 1001 2591 1001C2545.7 1001 2500.3 1001 2454.8 1001C2409.3 1001 2363.7 1001 2318.2 1001C2272.7 1001 2227.3 1001 2181.8 1001C2136.3 1001 2090.7 1001 2045.2 1001C1999.7 1001 1954.3 1001 1909 1001C1863.7 1001 1818.3 1001 1772.8 1001C1727.3 1001 1681.7 1001 1636.2 1001C1590.7 1001 1545.3 1001 1500 1001C1454.7 1001 1409.3 1001 1363.8 1001C1318.3 1001 1272.7 1001 1227.2 1001C1181.7 1001 1136.3 1001 1091 1001C1045.7 1001 1000.3 1001 954.8 1001C909.3 1001 863.7 1001 818.2 1001C772.7 1001 727.3 1001 681.8 1001C636.3 1001 590.7 1001 545.2 1001C499.7 1001 454.3 1001 409 1001C363.7 1001 318.3 1001 272.8 1001C227.3 1001 181.7 1001 136.2 1001C90.7 1001 45.3 1001 22.7 1001L0 1001Z" fill="#0066FF" stroke-linecap="round" stroke-linejoin="miter"></path></svg>