<svg id="visual" viewBox="0 0 3000 1000" width="3000" height="1000" xmlns="http://www.w3.org/2000/svg" xmlns:xlink="http://www.w3.org/1999/xlink" version="1.1"><rect x="0" y="0" width="3000" height="1000" fill="#002233"></rect><path d="M0 921L26.3 918.5C52.7 916 105.3 911 158 913.2C210.7 915.3 263.3 924.7 316 928.7C368.7 932.7 421.3 931.3 474 920.7C526.7 910 579.3 890 631.8 887.7C684.3 885.3 736.7 900.7 789.2 910.5C841.7 920.3 894.3 924.7 947 919.2C999.7 913.7 1052.3 898.3 1105 896.8C1157.7 895.3 1210.3 907.7 1263 905C1315.7 902.3 1368.3 884.7 1421 880.7C1473.7 876.7 1526.3 886.3 1579 885.7C1631.7 885 1684.3 874 1737 872C1789.7 870 1842.3 877 1895 884.3C1947.7 891.7 2000.3 899.3 2053 900.2C2105.7 901 2158.3 895 2210.8 898.8C2263.3 902.7 2315.7 916.3 2368.2 915.7C2420.7 915 2473.3 900 2526 894.2C2578.7 888.3 2631.3 891.7 2684 897C2736.7 902.3 2789.3 909.7 2842 903.8C2894.7 898 2947.3 879 2973.7 869.5L3000 860L3000 1001L2973.7 1001C2947.3 1001 2894.7 1001 2842 1001C2789.3 1001 2736.7 1001 2684 1001C2631.3 1001 2578.7 1001 2526 1001C2473.3 1001 2420.7 1001 2368.2 1001C2315.7 1001 2263.3 1001 2210.8 1001C2158.3 1001 2105.7 1001 2053 1001C2000.3 1001 1947.7 1001 1895 1001C1842.3 1001 1789.7 1001 1737 1001C1684.3 1001 1631.7 1001 1579 1001C1526.3 1001 1473.7 1001 1421 1001C1368.3 1001 1315.7 1001 1263 1001C1210.3 1001 1157.7 1001 1105 1001C1052.3 1001 999.7 1001 947 1001C894.3 1001 841.7 1001 789.2 1001C736.7 1001 684.3 1001 631.8 1001C579.3 1001 526.7 1001 474 1001C421.3 1001 368.7 1001 316 1001C263.3 1001 210.7 1001 158 1001C105.3 1001 52.7 1001 26.3 1001L0 1001Z" fill="#0066FF" stroke-linecap="round" stroke-linejoin="miter"></path></svg>