<svg id="visual" viewBox="0 0 3000 1000" width="3000" height="1000" xmlns="http://www.w3.org/2000/svg" xmlns:xlink="http://www.w3.org/1999/xlink" version="1.1"><rect x="0" y="0" width="3000" height="1000" fill="#002233"></rect><path d="M0 716L62.5 719.3C125 722.7 250 729.3 375 718.8C500 708.3 625 680.7 750 667.2C875 653.7 1000 654.3 1125 665.2C1250 676 1375 697 1500 706.8C1625 716.7 1750 715.3 1875 708C2000 700.7 2125 687.3 2250 692.2C2375 697 2500 720 2625 726.2C2750 732.3 2875 721.7 2937.5 716.3L3000 711L3000 1001L2937.5 1001C2875 1001 2750 1001 2625 1001C2500 1001 2375 1001 2250 1001C2125 1001 2000 1001 1875 1001C1750 1001 1625 1001 1500 1001C1375 1001 1250 1001 1125 1001C1000 1001 875 1001 750 1001C625 1001 500 1001 375 1001C250 1001 125 1001 62.5 1001L0 1001Z" fill="#0066FF" stroke-linecap="round" stroke-linejoin="miter"></path></svg>