<svg id="visual" viewBox="0 0 3000 1000" width="3000" height="1000" xmlns="http://www.w3.org/2000/svg" xmlns:xlink="http://www.w3.org/1999/xlink" version="1.1"><rect x="0" y="0" width="3000" height="1000" fill="#002233"></rect><path d="M0 836L83.3 824C166.7 812 333.3 788 500 773.5C666.7 759 833.3 754 1000 767.7C1166.7 781.3 1333.3 813.7 1500 825.2C1666.7 836.7 1833.3 827.3 2000 817.2C2166.7 807 2333.3 796 2500 800C2666.7 804 2833.3 823 2916.7 832.5L3000 842L3000 1001L2916.7 1001C2833.3 1001 2666.7 1001 2500 1001C2333.3 1001 2166.7 1001 2000 1001C1833.3 1001 1666.7 1001 1500 1001C1333.3 1001 1166.7 1001 1000 1001C833.3 1001 666.7 1001 500 1001C333.3 1001 166.7 1001 83.3 1001L0 1001Z" fill="#0066FF" stroke-linecap="round" stroke-linejoin="miter"></path></svg>